<?xml version="1.0" standalone="no"?>
<!DOCTYPE svg PUBLIC "-//W3C//DTD SVG 20010904//EN"
 "http://www.w3.org/TR/2001/REC-SVG-20010904/DTD/svg10.dtd">
<svg version="1.0" xmlns="http://www.w3.org/2000/svg"
 width="225.000000pt" height="225.000000pt" viewBox="0 0 225.000000 225.000000"
 preserveAspectRatio="xMidYMid meet">
<metadata>
Created by potrace 1.10, written by Peter Selinger 2001-2011
</metadata>
<g transform="translate(0.000000,225.000000) scale(0.100000,-0.100000)"
fill="#000000" stroke="none">
<path d="M910 2224 c-30 -8 -73 -27 -95 -41 -93 -61 -276 -205 -299 -236 -37
-49 -73 -133 -89 -212 -8 -38 -33 -154 -56 -257 -23 -103 -41 -199 -41 -213 0
-39 33 -65 84 -65 89 0 91 4 145 260 23 107 46 204 50 216 7 16 60 38 248 103
131 45 245 87 254 94 34 26 51 66 45 102 -4 20 -3 35 3 35 16 0 614 -131 623
-136 13 -8 12 -14 -53 -319 -39 -180 -60 -301 -56 -317 7 -25 102 -108 125
-108 6 0 19 11 27 24 19 29 156 653 158 716 1 75 -51 155 -118 180 -42 16
-849 190 -877 189 -13 0 -48 -7 -78 -15z m514 -114 c230 -50 431 -97 446 -105
34 -18 68 -63 76 -102 4 -21 -124 -661 -149 -747 -2 -5 -13 7 -25 27 -12 21
-32 39 -46 43 -15 3 -26 7 -26 8 0 1 32 147 70 326 61 283 68 326 56 339 -8 8
-169 47 -374 91 -198 43 -369 81 -382 85 -20 6 -18 2 14 -46 37 -55 46 -101
24 -116 -7 -4 -130 -49 -272 -99 l-260 -91 -50 -241 -51 -242 -59 0 c-57 0
-58 0 -52 25 4 14 29 130 56 257 64 296 72 323 113 381 31 44 260 227 329 263
29 15 90 31 123 33 11 1 208 -40 439 -89z"/>
<path d="M772 1969 c-74 -55 -132 -102 -130 -105 3 -2 22 3 44 12 21 9 94 36
162 59 67 23 125 45 128 48 8 8 -47 87 -60 86 -6 0 -71 -45 -144 -100z"/>
<path d="M1066 1679 c-32 -37 -32 -41 -3 -74 20 -24 48 -32 251 -76 251 -54
270 -54 290 4 9 24 6 31 -16 54 -23 23 -57 33 -249 75 -123 26 -229 48 -235
48 -7 0 -24 -14 -38 -31z m272 -58 c122 -26 228 -53 234 -59 9 -9 8 -16 -4
-28 -14 -14 -35 -12 -229 31 -118 25 -224 49 -236 52 -32 7 -30 53 1 53 6 0
111 -22 234 -49z"/>
<path d="M1026 1518 c-31 -44 -8 -91 52 -108 73 -20 404 -90 426 -90 27 0 66
39 66 66 0 46 -38 62 -250 109 -236 52 -272 55 -294 23z m284 -63 c118 -25
219 -50 224 -55 13 -13 -1 -40 -21 -40 -39 0 -449 93 -462 106 -12 11 -12 16
-1 29 7 8 20 13 29 11 9 -3 113 -25 231 -51z"/>
<path d="M2004 1496 c-37 -27 -42 -47 -144 -621 -23 -126 -44 -232 -46 -234
-9 -9 -14 10 -44 169 -45 236 -54 263 -95 298 -34 31 -89 52 -132 52 -23 0
-32 23 -13 35 18 11 10 41 -17 67 -22 21 -54 32 -153 52 -69 15 -143 31 -165
36 -140 34 -381 81 -403 78 -14 -2 -34 -15 -45 -30 -18 -25 -19 -30 -7 -54 8
-14 23 -30 33 -35 10 -6 143 -37 295 -70 152 -33 281 -64 286 -69 7 -7 -202
-10 -592 -10 -661 0 -633 2 -686 -60 -15 -18 -26 -44 -26 -60 0 -16 38 -225
84 -465 61 -314 91 -445 106 -470 11 -19 40 -43 64 -54 42 -21 54 -21 822 -21
859 0 812 -4 833 63 22 67 230 1298 225 1326 -10 46 -53 81 -110 87 -35 4 -55
1 -70 -10z m111 -38 c14 -6 28 -22 31 -34 5 -18 -198 -1224 -223 -1331 l-5
-23 -785 0 c-836 0 -812 -1 -856 48 -13 14 -41 140 -102 457 -47 240 -85 450
-85 465 0 19 10 36 31 54 l31 26 714 0 c762 0 754 0 798 -49 14 -15 34 -100
78 -328 32 -169 58 -320 58 -335 0 -15 5 -28 10 -28 6 0 10 12 10 26 0 25 117
687 166 934 13 69 24 126 24 128 0 7 83 0 105 -10z m-970 -138 c187 -40 346
-78 353 -84 10 -10 10 -15 0 -29 -12 -16 -39 -11 -358 58 -190 41 -351 77
-357 80 -14 5 -18 37 -6 49 4 3 12 5 18 3 5 -3 163 -37 350 -77z"/>
</g>
</svg>
