<?xml version="1.0" standalone="no"?>
<!DOCTYPE svg PUBLIC "-//W3C//DTD SVG 20010904//EN"
 "http://www.w3.org/TR/2001/REC-SVG-20010904/DTD/svg10.dtd">
<svg version="1.0" xmlns="http://www.w3.org/2000/svg"
 width="300.000000pt" height="300.000000pt" viewBox="0 0 300.000000 300.000000"
 preserveAspectRatio="xMidYMid meet">
<metadata>
Created by potrace 1.10, written by Peter Selinger 2001-2011
</metadata>
<g transform="translate(0.000000,300.000000) scale(0.100000,-0.100000)"
fill="#000000" stroke="none">
<path d="M1280 2984 c-14 -2 -68 -14 -120 -25 -579 -129 -1027 -587 -1135
-1162 -9 -47 -15 -108 -13 -134 3 -46 4 -45 27 52 57 244 93 351 159 475 102
191 233 343 417 481 171 129 390 225 601 264 49 10 98 19 109 22 11 2 55 9 98
16 84 12 119 8 335 -33 461 -87 832 -354 1043 -750 69 -129 110 -252 154 -465
24 -114 33 -133 34 -64 2 125 -59 348 -136 504 -199 402 -544 676 -998 792
-90 23 -122 26 -325 28 -124 2 -236 1 -250 -1z"/>
<path d="M1071 2787 c-81 -41 -134 -132 -112 -189 5 -15 35 -45 65 -68 45 -32
56 -46 56 -69 0 -32 -53 -96 -87 -106 -27 -7 -30 8 -8 27 72 60 83 90 39 110
-35 16 -86 -12 -125 -69 -39 -56 -46 -96 -25 -128 24 -36 52 -44 111 -30 71
16 111 40 166 96 l47 48 15 -23 c28 -42 48 -56 81 -56 37 0 86 38 86 67 0 14
8 18 33 19 17 0 43 3 57 7 21 6 28 2 45 -26 27 -42 74 -49 101 -15 15 18 29
24 64 25 25 0 57 4 71 8 23 6 27 3 32 -22 3 -15 19 -42 36 -59 22 -22 29 -38
27 -60 -3 -28 -4 -29 -102 -42 -54 -7 -115 -20 -134 -30 -33 -16 -37 -16 -70
0 -49 24 -190 41 -279 33 -204 -16 -375 -98 -527 -249 -79 -80 -107 -130 -100
-178 3 -18 8 -91 11 -163 3 -71 8 -157 10 -190 3 -33 7 -96 9 -140 31 -522 28
-505 91 -505 18 0 46 5 62 11 15 6 82 22 148 36 140 29 156 28 414 -23 138
-27 172 -29 188 -13 8 8 18 6 36 -6 15 -9 30 -15 34 -12 12 7 245 54 336 67
93 14 194 3 332 -35 111 -31 129 -31 148 -2 15 24 22 108 42 502 3 66 8 154
10 195 18 340 18 325 0 360 -27 52 -162 180 -240 227 -39 23 -104 55 -145 70
-41 14 -77 28 -79 30 -3 2 6 14 19 28 16 17 30 23 43 19 23 -7 57 22 57 50 0
12 -7 30 -16 41 -17 23 -12 55 23 138 27 65 24 89 -11 105 -30 13 -76 -12
-102 -57 -26 -44 -36 -38 -19 9 28 81 -27 121 -87 63 -24 -23 -28 -24 -28 -9
0 10 13 44 28 75 35 68 31 104 -12 109 -31 4 -68 -24 -92 -70 -11 -21 -22 -28
-45 -28 -47 0 -94 -25 -129 -69 -18 -23 -35 -40 -36 -38 -2 2 2 20 8 40 10 32
9 40 -7 57 -27 30 -53 24 -96 -22 -37 -41 -39 -42 -39 -17 0 14 -6 34 -14 45
-13 17 -18 18 -45 7 -29 -10 -34 -9 -72 23 -22 19 -45 34 -50 34 -5 0 -26 -16
-48 -35 -57 -52 -71 -48 -50 14 9 26 8 35 -6 51 -24 26 -99 30 -144 7z m76
-24 c2 -6 -10 -16 -27 -23 -36 -15 -90 -74 -90 -99 0 -20 28 -48 83 -80 42
-26 57 -48 57 -86 0 -73 -106 -169 -208 -188 -43 -9 -75 21 -66 61 14 61 93
133 130 117 17 -7 16 -9 -9 -20 -48 -20 -87 -63 -87 -96 0 -36 18 -44 65 -29
53 18 112 77 120 123 10 54 -6 82 -70 118 -35 19 -57 40 -61 54 -10 42 44 114
111 149 32 17 47 16 52 -1z m63 -3 c0 -5 -5 -10 -11 -12 -6 -2 -17 -26 -24
-53 -7 -28 -16 -48 -21 -45 -15 8 -7 90 11 110 16 18 45 17 45 0z m740 4 c0
-3 -16 -38 -35 -78 -62 -126 -86 -279 -51 -314 13 -14 20 -14 36 -4 22 14 44
16 36 4 -4 -7 103 -4 111 3 2 1 9 23 17 50 l15 48 -37 -36 c-77 -74 -128 -51
-112 50 10 62 33 109 61 124 33 17 34 4 5 -61 -15 -33 -30 -76 -33 -95 -5 -30
-3 -35 15 -35 21 0 74 54 118 120 28 41 72 58 61 23 -4 -10 -21 -60 -39 -110
l-33 -93 23 -15 c22 -16 31 -65 12 -65 -5 0 -10 6 -10 13 0 7 -6 21 -13 31
-13 17 -15 16 -35 -17 -27 -47 -67 -72 -114 -71 -38 1 -88 26 -88 44 0 15 19
12 36 -5 19 -18 74 -20 96 -2 18 14 48 58 48 69 0 16 -105 8 -130 -9 -17 -12
-25 -13 -28 -5 -2 7 -10 12 -17 12 -8 0 -23 12 -35 28 -19 23 -21 37 -18 95 2
37 0 67 -4 67 -4 0 -8 -4 -8 -10 0 -5 -18 -28 -40 -50 -82 -82 -143 -25 -90
85 22 47 37 65 70 88 30 21 64 22 80 2 17 -20 4 -32 -19 -18 -24 15 -47 0 -70
-45 -24 -47 -42 -112 -35 -124 15 -23 131 122 158 197 22 59 61 115 82 115 7
0 14 -3 14 -6z m-610 -50 c0 -3 -5 -15 -11 -26 -11 -20 -9 -21 30 -15 30 4 41
2 38 -6 -2 -7 -12 -13 -23 -15 -57 -8 -63 -13 -74 -50 -23 -81 -32 -166 -21
-194 13 -33 24 -35 52 -7 29 29 44 19 19 -14 -24 -31 -69 -36 -94 -12 -30 31
-30 130 0 233 5 18 2 22 -15 22 -11 0 -21 5 -21 10 0 6 11 10 24 10 17 0 30
10 45 35 11 19 27 35 36 35 8 0 15 -3 15 -6z m-230 -48 c0 -22 30 -41 64 -41
25 0 32 -5 34 -24 2 -12 1 -34 -3 -48 l-6 -25 -38 34 c-21 18 -51 43 -65 55
-23 19 -25 26 -16 43 12 23 30 27 30 6z m345 -58 c-28 -60 -44 -148 -28 -148
18 0 79 75 118 144 25 45 43 66 56 66 24 0 24 -1 -5 -74 -29 -71 -41 -154 -27
-176 8 -12 13 -12 23 -2 17 17 29 15 22 -3 -12 -29 -40 -36 -65 -16 -19 15
-22 27 -21 76 l1 57 -40 -46 c-47 -53 -84 -61 -99 -22 -17 44 15 160 55 200
31 31 37 2 10 -56z m-96 -56 c-5 -20 -9 -54 -9 -74 0 -31 -4 -38 -20 -38 -25
0 -27 43 -4 119 12 42 18 50 28 41 10 -8 11 -20 5 -48z m621 -231 c0 -13 -28
-33 -41 -29 -8 3 -6 9 5 21 19 18 36 22 36 8z m-495 -135 l60 -12 5 -669 c3
-369 5 -671 5 -672 0 -1 -27 5 -60 13 -184 43 -342 66 -425 61 -70 -4 -268
-47 -332 -72 -14 -6 -16 3 -17 72 -1 43 -12 260 -26 483 -14 223 -25 421 -25
441 0 31 10 47 66 108 201 217 461 303 749 247z m535 -2 c77 -19 191 -70 254
-113 63 -44 157 -132 189 -178 l26 -38 -14 -245 c-7 -135 -19 -355 -25 -490
-13 -288 -14 -294 -38 -281 -47 25 -280 74 -351 73 -66 0 -324 -44 -417 -71
l-31 -9 -7 106 c-3 58 -6 358 -6 668 l0 563 40 11 c114 31 263 32 380 4z"/>
<path d="M10 1394 c0 -75 33 -232 71 -341 73 -207 183 -379 348 -543 294 -293
651 -440 1071 -440 420 0 777 147 1071 440 211 211 342 449 399 730 18 90 28
221 15 208 -3 -3 -21 -72 -39 -154 -65 -288 -138 -450 -289 -639 -238 -297
-562 -479 -957 -540 -204 -32 -494 -2 -700 72 -70 25 -250 113 -300 146 -231
155 -408 349 -516 567 -52 106 -115 291 -129 380 -8 51 -36 170 -41 170 -2 0
-4 -25 -4 -56z"/>
<path d="M908 784 c-23 -10 -41 -26 -48 -45 -11 -27 -10 -32 10 -54 28 -30 41
-31 65 -5 26 29 33 17 23 -42 -7 -37 -20 -63 -44 -90 -19 -21 -34 -47 -34 -59
0 -117 215 -178 328 -93 l33 25 28 -30 c24 -26 34 -30 66 -26 34 5 42 2 67
-30 35 -42 68 -46 97 -9 16 20 26 24 50 21 16 -3 41 1 56 9 35 18 32 19 50
-16 22 -43 62 -62 100 -45 17 7 39 22 49 34 11 12 34 31 52 42 l33 20 35 -38
c20 -21 36 -45 36 -54 0 -26 34 -49 71 -49 39 0 95 31 124 69 11 14 40 45 65
68 44 42 44 43 31 75 -7 18 -14 40 -14 48 0 27 13 91 23 110 14 26 13 73 -2
88 -20 20 -42 14 -77 -22 -34 -35 -34 -35 -50 -14 -17 20 -18 20 -50 3 -24
-12 -32 -13 -28 -3 28 67 30 88 12 108 -10 11 -22 20 -26 20 -21 0 -78 -64
-93 -105 -10 -25 -24 -45 -32 -45 -30 0 -74 -31 -109 -76 -42 -57 -44 -40 -7
59 20 51 26 80 21 95 -20 53 -74 31 -113 -47 -22 -42 -30 -50 -63 -56 -27 -5
-50 -20 -81 -53 l-44 -46 3 29 c4 34 -4 51 -31 65 -16 9 -27 4 -62 -27 -23
-21 -38 -32 -34 -25 12 20 -21 62 -47 62 -13 0 -34 -11 -47 -25 -44 -47 -74
-18 -40 38 27 44 25 83 -6 114 -24 24 -30 25 -89 20 -46 -4 -67 -2 -81 8 -25
19 -129 18 -176 -1z m1123 -77 c-36 -79 -61 -179 -64 -255 -3 -77 12 -96 47
-63 14 13 28 21 33 18 5 -3 31 7 58 21 44 24 50 32 56 67 4 22 6 41 4 43 -2 2
-14 -15 -26 -38 -13 -23 -37 -49 -53 -57 -27 -14 -31 -14 -43 3 -22 30 17 172
57 209 28 25 26 5 -5 -70 -25 -61 -33 -125 -15 -125 14 0 64 78 103 163 22 48
42 77 51 77 20 0 20 -8 1 -54 -12 -29 -45 -162 -45 -182 0 -2 9 -4 20 -4 15 0
20 -7 20 -25 0 -27 -15 -34 -24 -10 -10 26 -23 16 -40 -30 -30 -76 -122 -139
-168 -114 -31 17 -20 27 22 22 36 -5 43 -2 74 30 30 32 53 83 43 94 -3 2 -21
-6 -40 -17 -20 -12 -42 -18 -49 -14 -7 4 -10 3 -5 -1 4 -5 -3 -19 -14 -32 -17
-17 -29 -21 -48 -17 -40 10 -51 32 -51 103 l0 66 -30 -52 c-31 -54 -54 -73
-88 -73 -24 0 -34 23 -26 58 10 42 53 122 79 148 27 27 75 33 75 9 0 -11 -7
-14 -23 -10 -20 5 -27 -1 -49 -42 -32 -59 -51 -124 -39 -136 5 -5 29 22 53 60
59 88 65 100 89 177 19 65 63 131 79 121 5 -3 -4 -33 -19 -68z m-956 53 c3 -6
-5 -39 -19 -74 -35 -88 -32 -103 6 -33 36 67 78 101 124 101 67 0 84 -51 35
-106 l-28 -32 24 -35 c60 -88 -17 -191 -141 -191 -106 0 -182 56 -160 118 9
26 54 45 54 23 0 -6 -7 -11 -15 -11 -24 0 -17 -36 14 -69 40 -43 101 -44 157
-2 99 71 97 161 -3 161 -41 0 -43 15 -4 23 37 8 91 54 91 78 0 14 -7 19 -29
19 -21 0 -38 -11 -64 -39 -37 -42 -91 -145 -102 -199 -10 -48 -29 -34 -33 24
-4 63 14 160 38 202 l19 32 -37 0 c-52 0 -88 -21 -85 -48 3 -25 -9 -29 -27 -7
-17 20 -3 52 28 64 36 13 149 14 157 1z m725 -28 c0 -4 -13 -39 -29 -77 -33
-79 -64 -217 -59 -266 2 -17 11 -37 21 -43 14 -9 21 -7 36 13 12 15 21 20 25
13 11 -18 -31 -52 -63 -52 -42 0 -55 22 -55 98 0 51 -2 61 -10 47 -6 -10 -24
-33 -39 -51 -75 -88 -128 -25 -72 85 37 75 109 125 130 91 11 -17 -5 -32 -20
-20 -21 18 -60 -27 -79 -91 -19 -64 -20 -82 -3 -77 15 5 116 148 117 165 0 24
41 122 61 147 20 25 39 34 39 18z m-436 -131 c3 -4 -3 -26 -13 -47 -25 -51
-44 -122 -36 -134 13 -20 47 13 101 96 31 48 61 84 70 84 18 0 18 0 -15 -90
-22 -58 -28 -160 -11 -160 6 0 13 7 16 15 4 8 10 12 15 9 15 -9 -10 -44 -31
-44 -28 0 -50 39 -50 88 l0 43 -34 -35 c-54 -58 -102 -41 -99 34 3 77 65 177
87 141z m-211 -30 c4 -1 7 -10 7 -22 0 -30 -62 -89 -93 -89 -23 0 -25 3 -17
28 23 79 35 94 69 88 14 -2 29 -5 34 -5z"/>
</g>
</svg>
